<svg xmlns="http://www.w3.org/2000/svg" viewBox="0 0 800 600">
  <defs><linearGradient id="g" x1="0" y1="0" x2="0" y2="1"><stop offset="0" stop-color="#3b2a1a"/><stop offset="1" stop-color="#1a120b"/></linearGradient></defs>
  <rect width="800" height="600" fill="url(#g)"/>
  <!-- chamber seats -->
  <g fill="#6b4a2b">
    <path d="M80 420 Q400 250 720 420 L720 470 Q400 300 80 470Z"/>
    <path d="M40 500 Q400 320 760 500 L760 550 Q400 370 40 550Z" opacity=".85"/>
  </g>
  <rect x="330" y="150" width="140" height="110" rx="8" fill="#8b6a43"/>
  <rect x="300" y="250" width="200" height="30" fill="#5a3e22"/>
  <g fill="#c9b79c"><circle cx="370" cy="190" r="16"/><circle cx="430" cy="190" r="16"/></g>
  <!-- vote board -->
  <rect x="580" y="170" width="200" height="150" rx="10" fill="#0b0b0b" stroke="#444" stroke-width="4"/>
  <text x="680" y="215" font-family="Arial, sans-serif" font-size="22" fill="#9be89b" text-anchor="middle">A FAVOR  38</text>
  <text x="680" y="250" font-family="Arial, sans-serif" font-size="22" fill="#ff8a80" text-anchor="middle">EN CONTRA  19</text>
  <text x="680" y="290" font-family="Arial, sans-serif" font-size="16" fill="#bbb" text-anchor="middle">1.er debate</text>
  <!-- breaking banner -->
  <rect x="0" y="40" width="520" height="70" fill="#d50000"/>
  <text x="24" y="90" font-family="Arial Black, Arial, sans-serif" font-size="40" font-weight="900" fill="#fff">ÚLTIMA HORA</text>
  <rect x="0" y="110" width="520" height="34" fill="#fff"/>
  <text x="24" y="135" font-family="Arial, sans-serif" font-size="17" font-weight="700" fill="#d50000">ASAMBLEA APRUEBA VOLVER A CREAR EL EJÉRCITO</text>
  <text x="400" y="590" font-family="Arial, sans-serif" font-size="14" fill="#a89a88" text-anchor="middle">Montaje ilustrativo creado para un juego académico.</text>
</svg>
